<svg width="120" height="34" viewBox="0 0 112 34" fill="none" xmlns="http://www.w3.org/2000/svg">
<path d="M0.140625 0.346931H2.97967V15.7886H0.140625V0.346931Z" fill="#227CBF"/>
<path d="M6.44189 4.2225H9.00396V5.26117C9.35018 4.77646 9.8349 4.43023 10.3889 4.15325C10.9428 3.87627 11.566 3.80703 12.1892 3.80703C12.8124 3.80703 13.3664 3.94552 13.9896 4.15325C14.5436 4.43023 15.0975 4.77646 15.513 5.19193L15.79 5.53815C16.2054 6.09211 16.4824 6.71532 16.5517 7.33852C16.6901 7.96173 16.6901 8.79267 16.6901 9.69285V15.6479H13.9203V10.1776C13.9203 9.48512 13.9204 8.86191 13.8511 8.51569C13.7819 8.10022 13.6434 7.75399 13.4356 7.40777C13.2279 7.06154 12.9509 6.85381 12.6047 6.64607C12.2585 6.50758 11.9122 6.36909 11.566 6.36909C11.1506 6.36909 10.8043 6.43834 10.4581 6.64607C10.1119 6.85381 9.8349 7.06154 9.69641 7.33852C9.55792 7.6155 9.41943 7.96173 9.35018 8.30795C9.28094 8.72342 9.21169 9.27738 9.21169 9.96983V10.3161V15.5787H6.44189V4.2225Z" fill="#227CBF"/>
<path d="M19.7373 6.71676H18.7679V4.22394H19.7373C19.7373 3.04678 20.0835 2.07735 20.776 1.24641C21.4684 0.41547 22.3686 0 23.5458 0H24.3074V2.7698C23.615 2.7698 23.1995 2.83904 22.9226 2.97753C22.6456 3.11602 22.5763 3.53149 22.5763 4.1547H24.169V6.64752H22.5763V15.7186H19.8065V6.71676H19.7373Z" fill="#227CBF"/>
<path d="M26.2459 4.2225H28.808V5.26117C29.1542 4.77646 29.5005 4.43023 29.9159 4.15325C30.3314 3.94552 30.8161 3.80703 31.3701 3.80703H31.5778V6.50758C30.9546 6.50758 30.4006 6.64607 29.9852 6.9923C29.5697 7.33852 29.2927 7.68475 29.2235 8.03097C29.1542 8.3772 29.085 8.93116 29.085 9.48512V15.7172H26.3152V4.2225H26.2459Z" fill="#227CBF"/>
<path d="M45.3569 15.7875H42.7948V14.1949C42.3793 14.8181 41.7561 15.2335 41.0637 15.5798C40.302 15.926 39.6095 16.0645 38.8478 16.0645C37.9476 16.0645 37.1859 15.926 36.4243 15.5798C35.7318 15.2335 34.9701 14.6103 34.2084 13.7794C33.4467 12.8792 33.1005 11.6328 33.1005 9.97091C33.1005 9.13998 33.239 8.37828 33.4467 7.75508C33.6545 7.06263 34.2084 6.30093 35.0394 5.3315C35.8703 4.36207 37.1859 3.87736 38.8478 3.87736C40.5097 3.87736 41.7561 4.56981 42.7255 5.88546V4.22358H45.2876V15.7875H45.3569ZM39.4018 6.57791C38.3631 6.57791 37.5322 6.92414 36.909 7.54734C36.2858 8.23979 35.9395 9.07073 35.9395 10.1094C35.9395 11.0788 36.2858 11.8405 36.909 12.4637C37.6014 13.0869 38.3631 13.4332 39.3325 13.4332C40.302 13.4332 41.1329 13.0869 41.7561 12.4637C42.3793 11.8405 42.7255 11.0096 42.7255 9.97091C42.7255 9.00149 42.4486 8.17055 41.8254 7.54734C41.2022 6.92414 40.3712 6.57791 39.4018 6.57791Z" fill="#227CBF"/>
<path d="M62.8088 11.565C62.2548 12.9499 61.2854 14.0578 59.9697 14.8888C58.6541 15.7197 57.1999 16.1352 55.6765 16.1352C53.4607 16.1352 51.5911 15.3042 49.9985 13.7116C48.4058 12.119 47.6441 10.2493 47.6441 8.0335C47.6441 5.81766 48.4058 3.94805 49.9985 2.42466C51.5911 0.832023 53.3915 0.0703278 55.6073 0.0703278C57.1999 0.0703278 58.6541 0.485798 60.039 1.31674C61.4239 2.14768 62.3933 3.32484 62.9473 4.77899H59.6928C59.208 4.15578 58.5848 3.74031 57.8924 3.39409C57.1999 3.04786 56.4382 2.90937 55.6765 2.90937C54.2916 2.90937 53.0452 3.46333 52.0758 4.50201C51.1064 5.54068 50.6217 6.78709 50.6217 8.24123C50.6217 9.62613 51.1064 10.8033 52.1451 11.9112C53.1837 12.9499 54.3609 13.5039 55.7458 13.5039C56.5075 13.5039 57.1999 13.3654 57.8231 13.0191C58.4463 12.7422 59.0696 12.2574 59.6235 11.7035H62.8088V11.565Z" fill="#47B65C"/>
<path d="M65.1602 4.2225H67.7222V5.26117C68.0685 4.77646 68.4147 4.43023 68.8302 4.15325C69.2456 3.94552 69.7303 3.80703 70.2843 3.80703H70.492V6.50758C69.8688 6.50758 69.3149 6.64607 68.8994 6.9923C68.4839 7.33852 68.207 7.68475 68.1377 8.03097C68.0685 8.3772 67.9992 8.93116 67.9992 9.48512V15.7172H65.2294V4.2225H65.1602Z" fill="#47B65C"/>
<path d="M74.9923 11.2876C75.2 11.9801 75.6155 12.4648 76.1694 12.8803C76.7234 13.2957 77.3466 13.5035 78.039 13.5035C79.147 13.5035 80.0471 13.1573 80.6011 12.5341H83.6479C83.3017 13.5727 82.54 14.4037 81.5013 15.1654C80.4626 15.8578 79.2854 16.2733 78.1083 16.2733C76.4464 16.2733 74.9923 15.6501 73.8151 14.4729C72.6379 13.2957 72.0147 11.8416 72.0147 10.1797C72.0147 8.4486 72.6379 6.99446 73.8151 5.74805C74.9923 4.50164 76.4464 3.94768 78.1775 3.94768C79.8394 3.94768 81.2243 4.57088 82.4015 5.74805C83.5786 6.92521 84.1326 8.37935 84.1326 10.0412C84.1326 10.249 84.1326 10.4567 84.0634 10.7337C83.9941 11.0107 83.9941 11.2184 83.9941 11.3569H74.9923V11.2876ZM81.3628 8.79483C81.1551 8.10238 80.7396 7.61766 80.1856 7.20219C79.6317 6.78672 78.9392 6.57899 78.2468 6.57899C77.5543 6.57899 76.8619 6.78672 76.2387 7.20219C75.6155 7.61766 75.2 8.17162 74.9923 8.79483H81.3628Z" fill="#47B65C"/>
<path d="M98.3292 15.7886H95.7672V14.1959C95.3517 14.8191 94.7977 15.3038 94.1053 15.5808C93.4128 15.9271 92.6511 16.0655 91.8894 16.0655C91.0585 16.0655 90.2968 15.9271 89.6044 15.5808C88.9119 15.2346 88.2887 14.7499 87.804 14.1959C87.3193 13.5727 86.9038 12.9495 86.6268 12.2571C86.3499 11.5646 86.2114 10.8029 86.2114 10.0412C86.2114 8.37935 86.6268 7.13294 87.3885 6.23275C88.1502 5.33257 88.9812 4.70936 89.7429 4.36314C90.5046 4.01691 91.2662 3.80918 92.0972 3.80918C92.7896 3.80918 93.4821 3.94767 94.1053 4.22465C94.7285 4.50163 95.2825 4.84785 95.6979 5.40181V0.346931H98.4677V15.7886H98.3292ZM92.3049 6.57898C91.4047 6.57898 90.643 6.9252 89.9506 7.54841C89.2581 8.24086 88.9119 9.00255 88.9119 9.90274C88.9119 10.8722 89.2581 11.7031 89.8813 12.3956C90.5046 13.088 91.3355 13.4342 92.3049 13.4342C93.2744 13.4342 94.1053 13.088 94.7285 12.3956C95.4209 11.7031 95.7672 10.8722 95.7672 9.97198C95.7672 9.00255 95.4209 8.24086 94.7285 7.54841C94.1053 6.9252 93.2744 6.57898 92.3049 6.57898Z" fill="#47B65C"/>
<path d="M101.168 0.346931H103.937V2.909H101.168V0.346931ZM101.168 4.22465H103.937V15.7886H101.168V4.22465Z" fill="#47B65C"/>
<path d="M107.33 6.71747H105.945V4.22465H107.33V0.346931H110.1V4.22465H111.762V6.71747H110.1V15.7886H107.33V6.71747Z" fill="#47B65C"/>
<path d="M22.2969 31.2995C21.3967 30.884 20.5658 30.33 19.7348 29.8453C18.9039 29.2914 18.1422 28.6681 17.3805 28.0449C16.6188 27.4217 15.9263 26.7293 15.2339 25.9676C14.8877 25.6214 14.6107 25.2059 14.2645 24.8597C14.1952 24.7904 14.126 24.6519 14.0567 24.5827C13.9875 24.5134 13.9182 24.375 13.849 24.3057C13.7105 24.1672 13.572 24.0287 13.5028 23.8902C13.0181 23.3363 12.5333 22.7823 12.1179 22.1591C11.6332 21.4667 11.2869 20.8435 10.9407 20.151C10.8022 19.874 10.6637 19.5278 10.5252 19.2508H0C0.13849 19.5971 0.27698 19.874 0.41547 20.2203C0.83094 21.1204 1.31565 21.9514 1.86961 22.8516C2.42357 23.6825 2.97753 24.5134 3.66998 25.2059C4.29319 25.9676 4.98564 26.66 5.74733 27.3525C6.43978 28.0449 7.20148 28.6681 8.03241 29.2221C8.79411 29.7761 9.62505 30.33 10.5252 30.8147C11.3562 31.2995 12.2564 31.7149 13.1565 32.1304C14.0567 32.4766 15.0262 32.8228 15.9263 33.0998C16.8958 33.3768 17.8652 33.5845 18.8346 33.723C19.2501 33.7923 19.6656 33.8615 20.081 33.8615C20.358 33.8615 20.7042 33.9308 20.9812 33.9308C21.2582 33.9308 21.6044 33.9308 21.8814 34C22.0199 34 22.2276 34 22.3661 34C22.5046 34 22.6431 34 22.7123 34C22.9893 34 23.2663 34 23.5433 34C23.8895 34 24.1665 34 24.5127 33.9308C24.9282 33.9308 25.2744 33.8615 25.6899 33.7923C26.3823 33.723 27.0748 33.5845 27.7672 33.3768C26.7978 33.1691 25.8284 32.8921 24.9282 32.5459C24.0972 32.1304 23.1971 31.7149 22.2969 31.2995Z" fill="#47B65C"/>
<path opacity="0.12" d="M5.74732 27.3521C6.43977 28.0446 7.20147 28.6678 8.03241 29.2217C8.7941 29.7757 9.62504 30.3297 10.5252 30.8144C11.3562 31.2991 12.2564 31.7146 13.1565 32.13C14.0567 32.4763 15.0261 32.8225 15.9263 33.0995C16.8958 33.3764 17.8652 33.5842 18.8346 33.7227C19.2501 33.7919 19.6656 33.8612 20.081 33.8612C20.358 33.8612 20.7042 33.9304 20.9812 33.9304C21.2582 33.9304 21.6044 33.9304 21.8814 33.9996C22.0199 33.9996 22.2276 33.9996 22.3661 33.9996C22.5046 33.9996 22.6431 33.9996 22.7123 33.9996C22.9893 33.9996 23.2663 33.9996 23.5433 33.9996C23.8895 33.9996 24.1665 33.9996 24.5127 33.9304C24.9282 33.9304 25.2744 33.8612 25.6899 33.7919C26.3823 33.7227 27.0748 33.5842 27.7672 33.3764C26.7978 33.1687 25.8284 32.8917 24.9282 32.5455C24.028 32.1993 23.1278 31.853 22.2276 31.3683C21.3274 30.9529 20.4965 30.3989 19.6656 29.9142C18.8346 29.3602 18.0729 28.737 17.3112 28.1138C16.5495 27.4906 15.8571 26.7982 15.1646 26.0365C14.8184 25.6902 14.5414 25.2748 14.1952 24.9286C14.126 24.8593 14.0567 24.7208 13.9875 24.6516C13.9182 24.5823 13.849 24.4438 13.7797 24.3746C13.6413 24.2361 13.572 24.1669 13.4335 24.0284C10.2482 24.5131 7.27071 25.2748 4.50092 26.2442C4.91639 26.5212 5.33186 26.9367 5.74732 27.3521Z" fill="white"/>
<path d="M34.6899 19.2508C34.4129 19.874 34.136 20.428 33.7897 20.982C33.4435 21.6052 33.028 22.2284 32.5433 22.7823C32.1279 23.3363 31.6431 23.821 31.1584 24.3057C30.6045 24.7904 30.0505 25.2751 29.4273 25.6906C28.6656 26.2446 27.8347 26.66 26.9345 27.0063C26.0343 27.3525 25.1341 27.5602 24.2339 27.6295C23.2645 27.6987 22.3643 27.6987 21.3949 27.5602C20.4947 27.4217 19.5945 27.1448 18.7636 26.7293C17.9326 26.3831 17.1709 25.8983 16.4785 25.4136C15.9245 24.9982 15.3706 24.5134 14.8859 24.0287C15.4398 24.7904 16.1323 25.5521 16.7555 26.1753C17.4479 26.8678 18.1404 27.491 18.9021 28.1142C19.6638 28.7374 20.4255 29.2914 21.2564 29.7761C22.0873 30.2608 22.9183 30.7455 23.7492 31.161C24.6494 31.5764 25.4803 31.9227 26.4498 32.1996C26.9345 32.3381 27.35 32.4766 27.8347 32.6151C27.9732 32.6151 28.0424 32.6844 28.1809 32.6844C28.2501 32.6844 28.3194 32.6844 28.3194 32.7536H28.3886H28.4579C28.6656 32.6844 28.9426 32.6151 29.1503 32.5459C30.0505 32.2689 30.9507 31.9919 31.8509 31.6457C32.6818 31.2995 33.5128 30.884 34.3437 30.4685C35.1054 30.053 35.9363 29.5683 36.6288 29.0144C37.3905 28.4604 38.0829 27.9065 38.7754 27.3525C39.3986 26.7985 40.0218 26.1753 40.5757 25.5521C41.1297 24.9982 41.6144 24.375 42.0299 23.7518C42.5146 23.1285 42.9301 22.4361 43.3455 21.8129C43.761 21.1204 44.1072 20.428 44.4535 19.7355C44.5227 19.5971 44.5919 19.4586 44.6612 19.3201H34.6899V19.2508Z" fill="#227CBF"/>
<path opacity="0.12" d="M16.8247 26.1739C17.5172 26.8663 18.2096 27.4895 18.9713 28.1127C19.733 28.7359 20.4947 29.2899 21.3256 29.7746C22.1566 30.2593 22.9875 30.744 23.8185 31.1595C24.7186 31.575 25.5496 31.9212 26.519 32.1982C27.0037 32.3367 27.4192 32.4752 27.9039 32.6137C28.0424 32.6137 28.1117 32.6829 28.2501 32.6829C28.3194 32.6829 28.3886 32.6829 28.3886 32.7521H28.4579H28.5271C28.7349 32.6829 29.0118 32.6137 29.2196 32.5444C30.1198 32.2674 31.0199 31.9905 31.9201 31.6442C32.7511 31.298 33.582 30.8825 34.4129 30.4671C35.1746 30.0516 36.0056 29.5669 36.698 29.0129C37.4597 28.459 38.1522 27.905 38.8446 27.351C39.2601 26.9356 39.7448 26.5201 40.1603 26.1046C37.4597 25.2044 34.5514 24.4428 31.5047 23.958C31.3662 24.0965 31.2969 24.1658 31.1584 24.3043C30.6045 24.789 30.0505 25.2737 29.4273 25.6892C28.6656 26.2431 27.8347 26.6586 26.9345 27.0048C26.0343 27.351 25.1341 27.5588 24.2339 27.628C23.2645 27.6973 22.3643 27.6973 21.3949 27.5588C20.4947 27.4203 19.5945 27.1433 18.7636 26.7278C17.9326 26.3816 17.1709 25.8969 16.4785 25.4122C15.9245 24.9967 15.3706 24.512 14.8859 24.0273C15.5783 24.7197 16.2015 25.4814 16.8247 26.1739Z" fill="white"/>
<path d="M51.2434 21.053C50.828 20.9145 50.6202 20.6375 50.6202 20.3606C50.6202 19.9451 50.9665 19.6681 51.5204 19.6681C51.7282 19.6681 51.9359 19.7374 52.1436 19.7374L52.3514 19.8066C52.3514 19.8066 52.3514 19.8066 52.3514 19.8758L52.2821 20.0143C52.2821 20.0143 52.2821 20.0143 52.2129 20.0143L52.0051 19.9451C51.7974 19.8758 51.6589 19.8758 51.4512 19.8758C51.105 19.8758 50.828 20.0836 50.828 20.3606C50.828 20.5683 50.8972 20.7068 51.2434 20.8453L51.7974 21.053C52.1436 21.1915 52.4206 21.3992 52.4206 21.7455C52.4206 22.2302 52.0051 22.5072 51.4512 22.5072C51.1742 22.5072 50.8972 22.4379 50.6895 22.3687L50.551 22.2994C50.551 22.2994 50.551 22.2994 50.551 22.2302L50.6202 22.0917C50.6202 22.0917 50.6202 22.0917 50.6895 22.0917L50.828 22.1609C51.0357 22.2302 51.2434 22.2994 51.5204 22.2994C51.8667 22.2994 52.2129 22.0917 52.2129 21.8147C52.2129 21.607 52.0051 21.4685 51.7974 21.33L51.2434 21.053Z" fill="#227CBF"/>
<path d="M54.4266 22.4357C54.2881 22.505 54.1496 22.505 54.0111 22.505C53.4571 22.505 53.1109 22.0895 53.1109 21.4663C53.1109 20.8431 53.4571 20.4276 54.0111 20.4276C54.4958 20.4276 54.7728 20.6354 54.7728 21.0508C54.7728 21.3278 54.5651 21.4663 54.2188 21.5355L53.4571 21.674C53.5264 22.0203 53.7341 22.228 54.0803 22.228C54.2188 22.228 54.3573 22.228 54.4266 22.1588L54.5651 22.0895H54.6343L54.7035 22.228V22.2972L54.4266 22.4357ZM54.1496 21.3971C54.3573 21.3278 54.4958 21.2586 54.4958 21.1201C54.4958 20.9123 54.2881 20.7739 54.0111 20.7739C53.6649 20.7739 53.3879 21.0508 53.3879 21.5355L54.1496 21.3971Z" fill="#227CBF"/>
<path d="M56.6442 22.4357C56.5057 22.505 56.3672 22.505 56.2287 22.505C55.6055 22.505 55.3285 22.0895 55.3285 21.4663C55.3285 20.8431 55.6748 20.4276 56.2287 20.4276C56.3672 20.4276 56.4365 20.4276 56.5749 20.4969L56.7134 20.5661C56.7134 20.5661 56.7134 20.5661 56.7134 20.6354L56.6442 20.7739C56.6442 20.7739 56.6442 20.7739 56.5749 20.7739H56.4365C56.298 20.7046 56.2287 20.7046 56.1595 20.7046C55.744 20.7046 55.467 20.9816 55.467 21.4663C55.467 21.951 55.6748 22.228 56.0902 22.228C56.1595 22.228 56.298 22.228 56.4365 22.1588H56.5749H56.6442L56.7134 22.2972V22.3665L56.6442 22.4357Z" fill="#227CBF"/>
<path d="M58.9311 22.1588C58.7234 22.3665 58.5156 22.505 58.2387 22.505C57.8232 22.505 57.5462 22.228 57.5462 21.7433V20.5661C57.5462 20.5661 57.5462 20.4969 57.6155 20.4969H57.8232C57.8232 20.4969 57.8924 20.4969 57.8924 20.5661V21.674C57.8924 22.0203 58.1002 22.228 58.3771 22.228C58.7926 22.228 59.0004 21.951 59.0004 21.3971V20.4969C59.0004 20.4969 59.0004 20.4276 59.0696 20.4276H59.2773C59.2773 20.4276 59.3466 20.4276 59.3466 20.4969V22.3665C59.3466 22.3665 59.3466 22.4357 59.2773 22.4357H59.1388C59.1388 22.4357 59.0696 22.4357 59.0696 22.3665L58.9311 22.1588Z" fill="#227CBF"/>
<path d="M60.9385 20.7046C60.4537 20.7739 60.246 21.1201 60.246 21.8125V22.4357C60.246 22.4357 60.246 22.505 60.1768 22.505H59.969C59.969 22.505 59.8998 22.505 59.8998 22.4357V20.5661C59.8998 20.5661 59.8998 20.4969 59.969 20.4969H60.1075C60.1075 20.4969 60.1768 20.4969 60.1768 20.5661V20.8431C60.1768 20.8431 60.1768 20.9123 60.246 20.8431C60.3845 20.6354 60.5922 20.4969 60.9385 20.4276C60.9385 20.4276 61.0077 20.4276 61.0077 20.4969V20.7046H60.9385Z" fill="#227CBF"/>
<path d="M62.1134 22.4357L61.9057 22.505C61.9057 22.505 61.8365 22.505 61.8365 22.4357V20.7739H61.6287C61.6287 20.7739 61.5595 20.7739 61.5595 20.7046V20.5661C61.5595 20.5661 61.5595 20.4969 61.6287 20.4969H62.0442C62.0442 20.4969 62.1134 20.4969 62.1134 20.5661V22.4357ZM62.1134 19.7352C62.1134 19.8737 62.0442 19.9429 61.9057 19.9429C61.7672 19.9429 61.698 19.8737 61.698 19.7352C61.698 19.5967 61.7672 19.5275 61.9057 19.5275C62.0442 19.5275 62.1134 19.6659 62.1134 19.7352Z" fill="#227CBF"/>
<path d="M63.1518 20.8442C63.3595 20.6364 63.5672 20.498 63.8442 20.498C64.2597 20.498 64.5367 20.7749 64.5367 21.2596V22.4368C64.5367 22.4368 64.5367 22.5061 64.4674 22.5061H64.2597C64.2597 22.5061 64.1904 22.5061 64.1904 22.4368V21.3289C64.1904 20.9827 63.9827 20.7749 63.7057 20.7749C63.2903 20.7749 63.0825 21.0519 63.0825 21.6059V22.5061C63.0825 22.5061 63.0825 22.5753 63.0133 22.5753H62.8055C62.8055 22.5753 62.7363 22.5753 62.7363 22.5061V20.6364C62.7363 20.6364 62.7363 20.5672 62.8055 20.5672H62.944C62.944 20.5672 63.0133 20.5672 63.0133 20.6364L63.1518 20.8442Z" fill="#227CBF"/>
<path d="M65.6461 23.06C65.7153 23.06 65.923 23.1293 66.0615 23.1293C66.477 23.1293 66.6847 22.9215 66.754 22.5753C66.754 22.2291 66.754 22.3676 66.754 22.2291C66.754 22.2291 66.754 22.1598 66.6847 22.2291C66.5462 22.4368 66.3385 22.5753 66.0615 22.5753C65.5768 22.5753 65.2306 22.1598 65.2306 21.5366C65.2306 20.9134 65.5768 20.498 66.1308 20.498C66.3385 20.498 66.477 20.5672 66.6155 20.6364L66.8925 20.7749C66.8925 20.7749 66.8925 20.7749 66.8925 20.8442V22.5753C66.8925 23.1293 66.6155 23.4062 65.9923 23.4062C65.8538 23.4062 65.6461 23.4062 65.5076 23.337L65.2998 23.2678C65.2998 23.2678 65.2998 23.2678 65.2998 23.1985L65.3691 23.06C65.3691 23.06 65.3691 23.06 65.4383 23.06H65.6461ZM66.5462 20.8442C66.477 20.7749 66.2693 20.7749 66.1308 20.7749C65.7153 20.7749 65.5076 21.0519 65.5076 21.5366C65.5076 22.0213 65.7153 22.2983 66.0615 22.2983C66.477 22.2983 66.6847 21.9521 66.6847 21.4674V20.9134L66.5462 20.8442Z" fill="#227CBF"/>
<path d="M69.1786 22.4379L68.9709 22.5072C68.9709 22.5072 68.9016 22.5071 68.9016 22.4379V19.7374C68.9016 19.7374 68.9016 19.6681 68.9709 19.6681H69.1786C69.1786 19.6681 69.2479 19.6681 69.2479 19.7374V22.4379H69.1786Z" fill="#227CBF"/>
<path d="M70.2173 20.8442C70.2865 20.8442 70.2865 20.8442 70.2173 20.8442C70.425 20.6364 70.6328 20.498 70.9098 20.498C71.3252 20.498 71.6022 20.7749 71.6022 21.2596V22.4368C71.6022 22.4368 71.6022 22.5061 71.533 22.5061H71.3252C71.3252 22.5061 71.256 22.5061 71.256 22.4368V21.3289C71.256 20.9827 71.0482 20.7749 70.7713 20.7749C70.3558 20.7749 70.1481 21.0519 70.1481 21.6059V22.5061C70.1481 22.5061 70.1481 22.5753 70.0788 22.5753H69.8711C69.8711 22.5753 69.8018 22.5753 69.8018 22.5061V20.6364C69.8018 20.6364 69.8018 20.5672 69.8711 20.5672H70.0096C70.0096 20.5672 70.0788 20.5672 70.0788 20.6364L70.2173 20.8442Z" fill="#227CBF"/>
<path d="M72.5709 20.1507C72.5709 19.8044 72.7786 19.5275 73.1248 19.5275C73.1941 19.5275 73.2633 19.5275 73.3326 19.5967H73.4018C73.4018 19.5967 73.4018 19.5967 73.4018 19.6659L73.3326 19.8044C73.3326 19.8044 73.3326 19.8044 73.2633 19.8044H73.1941C73.1248 19.8044 73.1248 19.8044 73.0556 19.8044C72.8479 19.8044 72.7786 19.9429 72.7786 20.1507V20.4969H73.1941C73.1941 20.4969 73.2633 20.4969 73.2633 20.5661V20.7046C73.2633 20.7046 73.2633 20.7739 73.1941 20.7739H72.7786V22.4357C72.7786 22.4357 72.7786 22.505 72.7094 22.505H72.5016C72.5016 22.505 72.4324 22.505 72.4324 22.4357V20.7739H72.2247C72.2247 20.7739 72.1554 20.7739 72.1554 20.7046V20.5661C72.1554 20.5661 72.1554 20.4969 72.2247 20.4969H72.4324V20.1507H72.5709Z" fill="#227CBF"/>
<path d="M74.9945 20.7046C74.5098 20.7739 74.3021 21.1201 74.3021 21.8125V22.4357C74.3021 22.4357 74.3021 22.505 74.2328 22.505H74.0251C74.0251 22.505 73.9558 22.505 73.9558 22.4357V20.5661C73.9558 20.5661 73.9558 20.4969 74.0251 20.4969H74.1636C74.1636 20.4969 74.2328 20.4969 74.2328 20.5661V20.8431C74.2328 20.8431 74.2328 20.9123 74.3021 20.8431C74.4405 20.6354 74.6483 20.4969 74.9945 20.4276C74.9945 20.4276 75.0637 20.4276 75.0637 20.4969V20.7046H74.9945Z" fill="#227CBF"/>
<path d="M75.8258 20.5672C75.9643 20.498 76.1028 20.498 76.2413 20.498C76.726 20.498 77.0722 20.7749 77.0722 21.2596V22.4368C77.0722 22.4368 77.0722 22.5061 77.003 22.5061H76.8645C76.8645 22.5061 76.7952 22.5061 76.7952 22.4368V22.2291C76.7952 22.1598 76.726 22.1598 76.726 22.2291C76.5875 22.4368 76.3798 22.5061 76.1028 22.5061C75.6873 22.5061 75.4796 22.2983 75.4796 21.9521C75.4796 21.6059 75.7566 21.3289 76.172 21.3289H76.7952V21.2596C76.7952 20.9134 76.5875 20.7057 76.2413 20.7057C76.1028 20.7057 75.9643 20.7057 75.8951 20.7749L75.7566 20.8442H75.6873L75.6181 20.7057V20.6364L75.8258 20.5672ZM76.172 21.5366C75.895 21.5366 75.7566 21.6751 75.7566 21.8829C75.7566 22.0906 75.895 22.2291 76.172 22.2291C76.5875 22.2291 76.7952 22.0213 76.7952 21.5366H76.172Z" fill="#227CBF"/>
<path d="M78.2475 21.5366C77.9705 21.4674 77.8321 21.3289 77.8321 21.0519C77.8321 20.7057 78.109 20.498 78.5245 20.498C78.7322 20.498 78.8707 20.498 79.0092 20.5672L79.1477 20.6364C79.1477 20.6364 79.1477 20.6364 79.1477 20.7057L79.0785 20.8442C79.0785 20.8442 79.0785 20.8442 79.0092 20.8442L78.8707 20.7749C78.7322 20.7749 78.5937 20.7057 78.4553 20.7057C78.1783 20.7057 78.0398 20.8442 78.0398 20.9827C78.0398 21.1212 78.109 21.1904 78.3168 21.2596L78.8015 21.3981C79.1477 21.4674 79.2862 21.6751 79.2862 21.8829C79.2862 22.2291 79.0092 22.4368 78.5245 22.4368C78.3168 22.4368 78.109 22.4368 77.9013 22.3676L77.7628 22.2983C77.7628 22.2983 77.7628 22.2983 77.7628 22.2291L77.8321 22.0906C77.8321 22.0906 77.8321 22.0906 77.9013 22.0906L78.0398 22.1598C78.1783 22.2291 78.386 22.2291 78.5937 22.2291C78.8707 22.2291 79.0785 22.0906 79.0785 21.8829C79.0785 21.7444 79.0092 21.6751 78.8015 21.6059L78.2475 21.5366Z" fill="#227CBF"/>
<path d="M80.74 20.5643C80.8093 20.5643 80.8093 20.5643 80.74 20.5643L80.8093 20.7721C80.8093 20.7721 80.8093 20.8413 80.74 20.8413H80.3246V22.0877C80.3246 22.2955 80.3938 22.3647 80.5323 22.3647C80.5323 22.3647 80.6015 22.3647 80.6708 22.3647H80.74L80.8093 22.5032V22.5724C80.74 22.5724 80.6708 22.6417 80.6015 22.6417C80.3246 22.6417 80.1168 22.4339 80.1168 22.157V20.9106H79.9091C79.9091 20.9106 79.8399 20.9106 79.8399 20.8413V20.7028C79.8399 20.7028 79.8399 20.6336 79.9091 20.6336H80.1168V20.1489V20.0796L80.3246 20.0104H80.3938V20.5643H80.74Z" fill="#227CBF"/>
<path d="M82.4726 20.7046C81.9879 20.7739 81.7801 21.1201 81.7801 21.8125V22.4357C81.7801 22.4357 81.7801 22.505 81.7109 22.505H81.5032C81.5032 22.505 81.4339 22.505 81.4339 22.4357V20.5661C81.4339 20.5661 81.4339 20.4969 81.5032 20.4969H81.6417C81.6417 20.4969 81.7109 20.4969 81.7109 20.5661V20.8431C81.7109 20.8431 81.7109 20.9123 81.7801 20.8431C81.9186 20.6354 82.1264 20.4969 82.4726 20.4276C82.4726 20.4276 82.5418 20.4276 82.5418 20.4969V20.7046H82.4726Z" fill="#227CBF"/>
<path d="M84.6192 22.1588C84.4114 22.3665 84.2037 22.505 83.9267 22.505C83.5113 22.505 83.2343 22.228 83.2343 21.7433V20.5661C83.2343 20.5661 83.2343 20.4969 83.3035 20.4969H83.5113C83.5113 20.4969 83.5805 20.4969 83.5805 20.5661V21.674C83.5805 22.0203 83.7882 22.228 84.0652 22.228C84.4807 22.228 84.6884 21.951 84.6884 21.3971V20.4969C84.6884 20.4969 84.6884 20.4276 84.7577 20.4276H84.9654C84.9654 20.4276 85.0346 20.4276 85.0346 20.4969V22.3665C85.0346 22.3665 85.0346 22.4357 84.9654 22.4357H84.8269C84.8269 22.4357 84.7577 22.4357 84.7577 22.3665L84.6192 22.1588Z" fill="#227CBF"/>
<path d="M86.8332 22.4357C86.6947 22.505 86.5562 22.505 86.4177 22.505C85.7945 22.505 85.5175 22.0895 85.5175 21.4663C85.5175 20.8431 85.8637 20.4276 86.4177 20.4276C86.5562 20.4276 86.6254 20.4276 86.7639 20.4969L86.9024 20.5661C86.9024 20.5661 86.9024 20.5661 86.9024 20.6354L86.8332 20.7739C86.8332 20.7739 86.8332 20.7739 86.7639 20.7739H86.6254C86.487 20.7046 86.4177 20.7046 86.3485 20.7046C85.933 20.7046 85.656 20.9816 85.656 21.4663C85.656 21.951 85.8637 22.228 86.2792 22.228C86.3485 22.228 86.487 22.228 86.6254 22.1588H86.7639H86.8332L86.9024 22.2972V22.3665L86.8332 22.4357Z" fill="#227CBF"/>
<path d="M88.5651 20.5643L88.6343 20.7721C88.6343 20.7721 88.6343 20.8413 88.5651 20.8413H88.1496V22.0877C88.1496 22.2955 88.2188 22.3647 88.3573 22.3647C88.3573 22.3647 88.4266 22.3647 88.4958 22.3647H88.5651L88.6343 22.5032V22.5724C88.5651 22.5724 88.4958 22.6417 88.4266 22.6417C88.1496 22.6417 87.9418 22.4339 87.9418 22.157V20.9106H87.7341C87.7341 20.9106 87.6649 20.9106 87.6649 20.8413V20.7028C87.6649 20.7028 87.6649 20.6336 87.7341 20.6336H87.9418V20.1489V20.0796L88.1496 20.0104H88.2188V20.5643H88.5651Z" fill="#227CBF"/>
<path d="M90.7142 22.1588C90.5064 22.3665 90.2987 22.505 90.0217 22.505C89.6062 22.505 89.3293 22.228 89.3293 21.7433V20.5661C89.3293 20.5661 89.3293 20.4969 89.3985 20.4969H89.6063C89.6063 20.4969 89.6755 20.4969 89.6755 20.5661V21.674C89.6755 22.0203 89.8832 22.228 90.1602 22.228C90.5757 22.228 90.7834 21.951 90.7834 21.3971V20.4969C90.7834 20.4969 90.7834 20.4276 90.8527 20.4276H91.0604C91.0604 20.4276 91.1296 20.4276 91.1296 20.4969V22.3665C91.1296 22.3665 91.1296 22.4357 91.0604 22.4357H90.9219C90.9219 22.4357 90.8527 22.4357 90.8527 22.3665L90.7142 22.1588Z" fill="#227CBF"/>
<path d="M92.7215 20.7046C92.2368 20.7739 92.0291 21.1201 92.0291 21.8125V22.4357C92.0291 22.4357 92.0291 22.505 91.9598 22.505H91.7521C91.7521 22.505 91.6828 22.505 91.6828 22.4357V20.5661C91.6828 20.5661 91.6828 20.4969 91.7521 20.4969H91.8906C91.8906 20.4969 91.9598 20.4969 91.9598 20.5661V20.8431C91.9598 20.8431 91.9598 20.9123 92.0291 20.8431C92.1676 20.6354 92.3753 20.4969 92.7215 20.4276C92.7215 20.4276 92.7908 20.4276 92.7908 20.4969V20.7046H92.7215Z" fill="#227CBF"/>
<path d="M94.5926 22.4357C94.4541 22.505 94.3156 22.505 94.1771 22.505C93.6232 22.505 93.2769 22.0895 93.2769 21.4663C93.2769 20.8431 93.6232 20.4276 94.1771 20.4276C94.6618 20.4276 94.9388 20.6354 94.9388 21.0508C94.9388 21.3278 94.7311 21.4663 94.3848 21.5355L93.6231 21.674C93.6924 22.0203 93.9001 22.228 94.2464 22.228C94.3848 22.228 94.5233 22.228 94.5926 22.1588L94.7311 22.0895H94.8003L94.8696 22.228V22.2972L94.5926 22.4357ZM94.3156 21.3971C94.5233 21.3278 94.6618 21.2586 94.6618 21.1201C94.6618 20.9123 94.4541 20.7739 94.1771 20.7739C93.8309 20.7739 93.5539 21.0508 93.5539 21.5355L94.3156 21.3971Z" fill="#227CBF"/>
<path d="M98.2604 20.9838L98.3297 21.1915C98.3297 21.1915 98.3297 21.2607 98.2604 21.2607H97.014V22.4379C97.014 22.4379 97.014 22.5072 96.9448 22.5072H96.8063C96.8063 22.5072 96.737 22.5071 96.737 22.4379V19.7374C96.737 19.7374 96.737 19.6681 96.8063 19.6681H98.5374C98.5374 19.6681 98.6067 19.6681 98.5374 19.7374L98.4682 19.8758C98.4682 19.8758 98.4682 19.8758 98.3989 19.8758H96.9448V20.9838H98.2604Z" fill="#227CBF"/>
<path d="M99.6446 22.4357L99.4368 22.505C99.4368 22.505 99.3676 22.505 99.3676 22.4357V20.7739H99.1599C99.1599 20.7739 99.0906 20.7739 99.0906 20.7046V20.5661C99.0906 20.5661 99.0906 20.4969 99.1599 20.4969H99.5753C99.5753 20.4969 99.6446 20.4969 99.6446 20.5661V22.4357ZM99.6446 19.7352C99.6446 19.8737 99.5753 19.9429 99.4368 19.9429C99.2983 19.9429 99.2291 19.8737 99.2291 19.7352C99.2291 19.5967 99.2983 19.5275 99.4368 19.5275C99.5753 19.5275 99.6446 19.6659 99.6446 19.7352Z" fill="#227CBF"/>
<path d="M100.683 20.8442C100.891 20.6364 101.098 20.498 101.375 20.498C101.791 20.498 102.068 20.7749 102.068 21.2596V22.4368C102.068 22.4368 102.068 22.5061 101.999 22.5061H101.791C101.791 22.5061 101.722 22.5061 101.722 22.4368V21.3289C101.722 20.9827 101.514 20.7749 101.237 20.7749C100.821 20.7749 100.614 21.0519 100.614 21.6059V22.5061C100.614 22.5061 100.614 22.5753 100.544 22.5753H100.337C100.337 22.5753 100.267 22.5753 100.267 22.5061V20.6364C100.267 20.6364 100.267 20.5672 100.337 20.5672H100.475C100.475 20.5672 100.544 20.5672 100.544 20.6364L100.683 20.8442Z" fill="#227CBF"/>
<path d="M103.108 20.5672C103.246 20.498 103.385 20.498 103.523 20.498C104.008 20.498 104.354 20.7749 104.354 21.2596V22.4368C104.354 22.4368 104.354 22.5061 104.285 22.5061H104.147C104.147 22.5061 104.077 22.5061 104.077 22.4368V22.2291C104.077 22.1598 104.008 22.1598 104.008 22.2291C103.87 22.4368 103.662 22.5061 103.385 22.5061C102.969 22.5061 102.762 22.2983 102.762 21.9521C102.762 21.6059 103.039 21.3289 103.454 21.3289H104.077V21.2596C104.077 20.9134 103.87 20.7057 103.523 20.7057C103.385 20.7057 103.246 20.7057 103.177 20.7749L103.039 20.8442H102.969L102.9 20.7057V20.6364L103.108 20.5672ZM103.454 21.5366C103.177 21.5366 103.039 21.6751 103.039 21.8829C103.039 22.0906 103.177 22.2291 103.454 22.2291C103.87 22.2291 104.077 22.0213 104.077 21.5366H103.454Z" fill="#227CBF"/>
<path d="M105.324 20.8442C105.394 20.8442 105.394 20.8442 105.324 20.8442C105.532 20.6364 105.74 20.498 106.017 20.498C106.432 20.498 106.709 20.7749 106.709 21.2596V22.4368C106.709 22.4368 106.709 22.5061 106.64 22.5061H106.432C106.432 22.5061 106.363 22.5061 106.363 22.4368V21.3289C106.363 20.9827 106.155 20.7749 105.878 20.7749C105.463 20.7749 105.255 21.0519 105.255 21.6059V22.5061C105.255 22.5061 105.255 22.5753 105.186 22.5753H104.978C104.978 22.5753 104.909 22.5753 104.909 22.5061V20.6364C104.909 20.6364 104.909 20.5672 104.978 20.5672H105.117C105.117 20.5672 105.186 20.5672 105.186 20.6364L105.324 20.8442Z" fill="#227CBF"/>
<path d="M108.785 22.4357C108.646 22.505 108.508 22.505 108.369 22.505C107.746 22.505 107.469 22.0895 107.469 21.4663C107.469 20.8431 107.815 20.4276 108.369 20.4276C108.508 20.4276 108.577 20.4276 108.715 20.4969L108.854 20.5661C108.854 20.5661 108.854 20.5661 108.854 20.6354L108.785 20.7739C108.785 20.7739 108.785 20.7739 108.715 20.7739H108.577C108.438 20.7046 108.369 20.7046 108.3 20.7046C107.884 20.7046 107.607 20.9816 107.607 21.4663C107.607 21.951 107.815 22.228 108.231 22.228C108.3 22.228 108.438 22.228 108.577 22.1588H108.715H108.785L108.854 22.2972V22.3665L108.785 22.4357Z" fill="#227CBF"/>
<path d="M110.862 22.4357C110.723 22.505 110.585 22.505 110.446 22.505C109.892 22.505 109.546 22.0895 109.546 21.4663C109.546 20.8431 109.892 20.4276 110.446 20.4276C110.931 20.4276 111.208 20.6354 111.208 21.0508C111.208 21.3278 111 21.4663 110.654 21.5355L109.892 21.674C109.961 22.0203 110.169 22.228 110.515 22.228C110.654 22.228 110.792 22.228 110.862 22.1588L111 22.0895H111.069L111.139 22.228V22.2972L110.862 22.4357ZM110.515 21.3971C110.723 21.3278 110.862 21.2586 110.862 21.1201C110.862 20.9123 110.654 20.7739 110.377 20.7739C110.031 20.7739 109.754 21.0508 109.754 21.5355L110.515 21.3971Z" fill="#227CBF"/>
</svg>
