<svg width="189" height="84" viewBox="0 0 189 84" fill="none" xmlns="http://www.w3.org/2000/svg">
<g clip-path="url(#clip0_7874_27)">
<path d="M48.5601 69.0396C47.0239 68.3439 45.6059 67.4163 44.188 66.6047C42.77 65.6771 41.4701 64.6336 40.1703 63.59C38.8705 62.5465 37.6888 61.387 36.5072 60.1116C35.9163 59.5319 35.4437 58.8362 34.8528 58.2564C34.7347 58.1405 34.6165 57.9086 34.4984 57.7926C34.3802 57.6767 34.262 57.4448 34.1439 57.3288C33.9075 57.0969 33.6712 56.865 33.553 56.6332C32.7259 55.7056 31.8987 54.778 31.1897 53.7344C30.3625 52.575 29.7717 51.5314 29.1809 50.3719C28.9446 49.9082 28.7082 49.3284 28.4719 48.8646H10.5107C10.747 49.4444 10.9833 49.9082 11.2197 50.4879C11.9287 51.9952 12.7558 53.3866 13.7012 54.8939C14.6465 56.2853 15.5918 57.6767 16.7735 58.8362C17.837 60.1116 19.0186 61.2711 20.3184 62.4306C21.5001 63.59 22.7999 64.6336 24.2179 65.5612C25.5177 66.4887 26.9357 67.4163 28.4719 68.228C29.8899 69.0396 31.426 69.7353 32.9622 70.431C34.4984 71.0107 36.1527 71.5905 37.6888 72.0543C39.3432 72.518 40.9975 72.8659 42.6518 73.0978C43.3608 73.2137 44.0698 73.3297 44.7788 73.3297C45.2514 73.3297 45.8423 73.4456 46.3149 73.4456C46.7876 73.4456 47.3784 73.4456 47.8511 73.5616C48.0874 73.5616 48.4419 73.5616 48.6783 73.5616C48.9146 73.5616 49.1509 73.5616 49.2691 73.5616C49.7417 73.5616 50.2144 73.5616 50.6871 73.5616C51.2779 73.5616 51.7506 73.5616 52.3414 73.4456C53.0504 73.4456 53.6412 73.3297 54.3502 73.2137C55.5319 73.0978 56.7135 72.8659 57.8952 72.518C56.2409 72.1702 54.5866 71.7064 53.0504 71.1267C51.6324 70.431 50.0962 69.7353 48.5601 69.0396Z" fill="#47B65C"/>
<path opacity="0.12" d="M20.3184 62.4336C21.5001 63.5931 22.7999 64.6366 24.2179 65.5642C25.5177 66.4918 26.9357 67.4194 28.4719 68.231C29.8899 69.0427 31.426 69.7383 32.9622 70.434C34.4983 71.0138 36.1527 71.5935 37.6888 72.0573C39.3431 72.5211 40.9975 72.8689 42.6518 73.1008C43.3608 73.2168 44.0698 73.3327 44.7788 73.3327C45.2514 73.3327 45.8423 73.4487 46.3149 73.4487C46.7876 73.4487 47.3784 73.4487 47.8511 73.5646C48.0874 73.5646 48.4419 73.5646 48.6782 73.5646C48.9146 73.5646 49.1509 73.5646 49.2691 73.5646C49.7417 73.5646 50.2144 73.5646 50.6871 73.5646C51.2779 73.5646 51.7506 73.5646 52.3414 73.4487C53.0504 73.4487 53.6412 73.3327 54.3502 73.2168C55.5319 73.1008 56.7135 72.8689 57.8952 72.5211C56.2409 72.1733 54.5865 71.7095 53.0504 71.1297C51.5142 70.55 49.9781 69.9702 48.4419 69.1586C46.9058 68.4629 45.4878 67.5353 44.0698 66.7237C42.6518 65.7961 41.352 64.7526 40.0521 63.709C38.7523 62.6655 37.5707 61.506 36.389 60.2306C35.7982 59.6509 35.3255 58.9552 34.7347 58.3754C34.6165 58.2595 34.4983 58.0276 34.3802 57.9116C34.262 57.7957 34.1438 57.5638 34.0257 57.4478C33.7893 57.2159 33.6712 57.1 33.4348 56.8681C27.9992 57.6797 22.9181 58.9552 18.1915 60.5784C18.9004 61.0422 19.6094 61.7379 20.3184 62.4336Z" fill="white"/>
<path d="M69.7088 48.8646C69.2361 49.9082 68.7635 50.8357 68.1726 51.7633C67.5818 52.8069 66.8728 53.8504 66.0457 54.778C65.3367 55.7056 64.5095 56.5172 63.6823 57.3288C62.737 58.1405 61.7917 58.9521 60.7282 59.6478C59.4284 60.5754 58.0104 61.2711 56.4742 61.8508C54.9381 62.4306 53.4019 62.7784 51.8658 62.8943C50.2114 63.0103 48.6753 63.0103 47.0209 62.7784C45.4848 62.5465 43.9486 62.0827 42.5306 61.387C41.1127 60.8073 39.8128 59.9956 38.6312 59.184C37.6858 58.4883 36.7405 57.6767 35.9134 56.865C36.8587 58.1405 38.0403 59.4159 39.1038 60.4594C40.2855 61.6189 41.4672 62.6625 42.767 63.706C44.0668 64.7495 45.3666 65.6771 46.7846 66.4887C48.2026 67.3004 49.6206 68.112 51.0386 68.8077C52.5747 69.5034 53.9927 70.0831 55.6471 70.5469C56.4742 70.7788 57.1832 71.0107 58.0104 71.2426C58.2467 71.2426 58.3649 71.3586 58.6012 71.3586C58.7194 71.3586 58.8375 71.3586 58.8375 71.4745H58.9557H59.0739C59.4284 71.3586 59.901 71.2426 60.2555 71.1267C61.7917 70.6629 63.3278 70.1991 64.864 69.6193C66.282 69.0396 67.7 68.3439 69.118 67.6482C70.4178 66.9525 71.8358 66.1409 73.0174 65.2133C74.3173 64.2857 75.4989 63.3581 76.6806 62.4306C77.7441 61.503 78.8076 60.4594 79.7529 59.4159C80.6982 58.4883 81.5254 57.4448 82.2344 56.4013C83.0615 55.3577 83.7705 54.1982 84.4795 53.1547C85.1885 51.9952 85.7794 50.8357 86.3702 49.6763C86.4883 49.4444 86.6065 49.2125 86.7247 48.9806H69.7088V48.8646Z" fill="#227CBF"/>
<path opacity="0.12" d="M39.222 60.4602C40.4037 61.6197 41.5853 62.6632 42.8851 63.7068C44.185 64.7503 45.4848 65.6779 46.9028 66.4895C48.3208 67.3012 49.7388 68.1128 51.1568 68.8085C52.6929 69.5042 54.1109 70.0839 55.7652 70.5477C56.5924 70.7796 57.3014 71.0115 58.1285 71.2434C58.3649 71.2434 58.483 71.3593 58.7194 71.3593C58.8375 71.3593 58.9557 71.3593 58.9557 71.4753H59.0739H59.192C59.5465 71.3593 60.0192 71.2434 60.3737 71.1274C61.9098 70.6637 63.446 70.1999 64.9822 69.6201C66.4001 69.0404 67.8181 68.3447 69.2361 67.649C70.536 66.9533 71.9539 66.1417 73.1356 65.2141C74.4354 64.2865 75.6171 63.3589 76.7987 62.4313C77.5077 61.7356 78.3349 61.04 79.0439 60.3443C74.4354 58.8369 69.4725 57.5615 64.2732 56.7499C64.0368 56.9818 63.9187 57.0977 63.6823 57.3296C62.737 58.1413 61.7917 58.9529 60.7282 59.6486C59.4284 60.5762 58.0104 61.2719 56.4742 61.8516C54.9381 62.4313 53.4019 62.7792 51.8657 62.8951C50.2114 63.0111 48.6753 63.0111 47.0209 62.7792C45.4848 62.5473 43.9486 62.0835 42.5306 61.3878C41.1127 60.8081 39.8128 59.9964 38.6312 59.1848C37.6858 58.4891 36.7405 57.6775 35.9134 56.8658C37.095 58.0253 38.1585 59.3007 39.222 60.4602Z" fill="white"/>
<path d="M15.942 40.0178H10.736V11.8978H15.942V40.0178ZM39.4364 40.0178H34.3824V29.6058C34.3824 25.0965 32.9637 22.8418 30.1264 22.8418C28.6824 22.8418 27.5297 23.4625 26.6684 24.7038C26.0604 25.5905 25.7564 27.3512 25.7564 29.9858V40.0178H20.7024V18.9278H25.3764V20.7518C27.1244 19.0545 29.0497 18.2058 31.1524 18.2058C32.3177 18.2058 33.4831 18.4718 34.6484 19.0038C35.8137 19.5358 36.7637 20.2452 37.4984 21.1318C38.7904 22.7025 39.4364 25.0965 39.4364 28.3138V40.0178ZM52.0755 16.3058C50.8849 16.3312 50.0615 16.4958 49.6055 16.7998C49.1749 17.1038 48.9215 17.8132 48.8455 18.9278H51.8095V23.4118H48.8455V40.0178H43.7915V23.4118H42.0055V18.9278H43.7915C44.0195 16.3438 44.8429 14.3805 46.2615 13.0378C47.5282 11.8978 48.9975 11.3278 50.6695 11.3278H52.0755V16.3058ZM64.1319 23.1078C61.0666 23.2092 59.5339 24.8938 59.5339 28.1618V40.0178H54.4799V18.9278H59.1159V20.7898H59.1919C59.9013 19.7765 60.5853 19.0925 61.2439 18.7378C61.9026 18.3832 62.8653 18.2058 64.1319 18.2058V23.1078ZM86.5128 40.0178H81.8768V37.3958C81.0408 38.3838 79.9261 39.1818 78.5328 39.7898C77.1648 40.3978 75.8221 40.7018 74.5048 40.7018C71.4394 40.7018 68.9568 39.5872 67.0568 37.3578C65.1821 35.1285 64.2448 32.4558 64.2448 29.3398C64.2448 26.2492 65.2328 23.6272 67.2088 21.4738C69.2101 19.2952 71.7434 18.2058 74.8088 18.2058C77.1394 18.2058 79.2168 19.0418 81.0408 20.7138C81.4208 21.0938 81.6741 21.3852 81.8008 21.5878H81.8768V18.9278H86.5128V40.0178ZM80.0148 34.1278C81.1548 32.8358 81.7248 31.2652 81.7248 29.4158C81.7248 27.5665 81.1548 26.0085 80.0148 24.7418C78.8748 23.4752 77.3928 22.8418 75.5688 22.8418C73.7448 22.8418 72.2374 23.5005 71.0468 24.8178C69.8814 26.1352 69.2988 27.7185 69.2988 29.5678C69.2988 31.3665 69.8941 32.8992 71.0848 34.1658C72.3008 35.4325 73.7954 36.0658 75.5688 36.0658C77.3928 36.0658 78.8748 35.4198 80.0148 34.1278Z" fill="#227CBF"/>
<path d="M113.271 26.0338C113.271 28.4912 112.663 30.8472 111.447 33.1018C110.256 35.3565 108.622 37.0538 106.545 38.1938C104.341 39.4098 101.225 40.0178 97.1967 40.0178H90.6987V11.8978H97.0827C102.301 11.8978 106.152 12.9872 108.635 15.1658C110.104 16.4578 111.244 18.0792 112.055 20.0298C112.865 21.9805 113.271 23.9818 113.271 26.0338ZM108.065 26.0338C108.065 24.7418 107.799 23.4752 107.267 22.2338C106.76 20.9925 106.025 19.9538 105.063 19.1178C104.252 18.3832 103.277 17.8385 102.137 17.4838C101.022 17.1292 100.059 16.9265 99.2487 16.8758C98.438 16.7998 97.3234 16.7618 95.9047 16.7618V35.1538H97.0067C99.9454 35.1538 102.225 34.6978 103.847 33.7858C105.164 33.0512 106.19 31.9745 106.925 30.5558C107.685 29.1372 108.065 27.6298 108.065 26.0338ZM138.282 29.4158C138.282 32.6078 137.218 35.2932 135.09 37.4718C132.962 39.6252 130.302 40.7018 127.11 40.7018C124.019 40.7018 121.372 39.5998 119.168 37.3958C116.964 35.1918 115.862 32.5572 115.862 29.4918C115.862 26.3758 116.951 23.7158 119.13 21.5118C121.334 19.3078 123.994 18.2058 127.11 18.2058C130.226 18.2058 132.861 19.2952 135.014 21.4738C137.193 23.6525 138.282 26.2998 138.282 29.4158ZM133.228 29.5298C133.228 27.7818 132.633 26.2365 131.442 24.8938C130.277 23.5258 128.833 22.8418 127.11 22.8418C125.362 22.8418 123.893 23.5132 122.702 24.8558C121.511 26.1985 120.916 27.7438 120.916 29.4918C120.916 31.2905 121.499 32.8358 122.664 34.1278C123.829 35.4198 125.311 36.0658 127.11 36.0658C128.858 36.0658 130.315 35.4198 131.48 34.1278C132.645 32.8358 133.228 31.3032 133.228 29.5298ZM162.399 33.1398C161.563 35.4705 160.207 37.3198 158.333 38.6878C156.458 40.0305 154.292 40.7018 151.835 40.7018C148.719 40.7018 146.071 39.5998 143.893 37.3958C141.714 35.1665 140.625 32.4938 140.625 29.3778C140.625 26.2872 141.714 23.6525 143.893 21.4738C146.097 19.2952 148.731 18.2058 151.797 18.2058C154.254 18.2058 156.433 18.9025 158.333 20.2958C160.258 21.6892 161.613 23.5638 162.399 25.9198H156.699C155.559 23.8678 153.925 22.8418 151.797 22.8418C149.973 22.8418 148.491 23.4878 147.351 24.7798C146.236 26.0465 145.679 27.6045 145.679 29.4538C145.679 31.3032 146.274 32.8738 147.465 34.1658C148.655 35.4325 150.175 36.0658 152.025 36.0658C153.925 36.0658 155.483 35.0905 156.699 33.1398H162.399ZM179.523 33.3298C179.523 35.4072 178.814 37.1552 177.395 38.5738C176.002 39.9925 174.254 40.7018 172.151 40.7018C170.935 40.7018 169.757 40.4738 168.617 40.0178C167.477 39.5365 166.553 38.8398 165.843 37.9278C164.931 36.7878 164.399 35.2678 164.247 33.3678H169.415C169.821 35.1665 170.745 36.0658 172.189 36.0658C172.823 36.0658 173.355 35.8758 173.785 35.4958C174.241 35.0905 174.469 34.5712 174.469 33.9378C174.469 33.5072 174.368 33.1398 174.165 32.8358C174.013 32.6078 173.722 32.3798 173.291 32.1518C172.861 31.9238 172.468 31.7465 172.113 31.6198C171.784 31.4932 171.315 31.3285 170.707 31.1258C170.125 30.9232 169.795 30.8092 169.719 30.7838C166.578 29.6692 165.007 27.6552 165.007 24.7418C165.007 22.8672 165.704 21.3092 167.097 20.0678C168.516 18.8265 170.175 18.2058 172.075 18.2058C173.925 18.2058 175.508 18.8265 176.825 20.0678C178.168 21.3092 178.877 22.8418 178.953 24.6658H174.013C173.76 23.4498 173.089 22.8418 171.999 22.8418C171.467 22.8418 171.011 23.0192 170.631 23.3738C170.251 23.7032 170.061 24.1338 170.061 24.6658C170.061 25.0205 170.163 25.3245 170.365 25.5778C170.568 25.8058 170.758 25.9705 170.935 26.0718C171.113 26.1478 171.404 26.2618 171.809 26.4138C172.215 26.5658 172.823 26.7685 173.633 27.0218C175.559 27.6298 177.015 28.3898 178.003 29.3018C179.017 30.1885 179.523 31.5312 179.523 33.3298Z" fill="#47B65C"/>
<path d="M91.33 56V55.32H93.35C93.89 55.32 94.3667 55.2033 94.78 54.97C95.1933 54.73 95.5167 54.4033 95.75 53.99C95.9833 53.57 96.1 53.09 96.1 52.55C96.1 52.01 95.9833 51.5333 95.75 51.12C95.5167 50.7067 95.1933 50.3833 94.78 50.15C94.3667 49.91 93.89 49.79 93.35 49.79H91.35V49.12H93.37C93.87 49.12 94.33 49.2067 94.75 49.38C95.1767 49.5467 95.5467 49.7867 95.86 50.1C96.18 50.4067 96.4267 50.77 96.6 51.19C96.7733 51.6033 96.86 52.06 96.86 52.56C96.86 53.0467 96.7733 53.5 96.6 53.92C96.4267 54.34 96.1833 54.7067 95.87 55.02C95.5567 55.3267 95.1867 55.5667 94.76 55.74C94.34 55.9133 93.8833 56 93.39 56H91.33ZM90.88 56V49.12H91.61V56H90.88ZM100.933 56.1C100.479 56.1 100.066 55.99 99.6926 55.77C99.3259 55.55 99.0326 55.2533 98.8126 54.88C98.5992 54.5067 98.4926 54.09 98.4926 53.63C98.4926 53.1767 98.5992 52.7667 98.8126 52.4C99.0326 52.0333 99.3259 51.7433 99.6926 51.53C100.066 51.31 100.479 51.2 100.933 51.2C101.393 51.2 101.806 51.3067 102.173 51.52C102.539 51.7333 102.829 52.0267 103.043 52.4C103.263 52.7667 103.373 53.1767 103.373 53.63C103.373 54.0967 103.263 54.5167 103.043 54.89C102.829 55.2567 102.539 55.55 102.173 55.77C101.806 55.99 101.393 56.1 100.933 56.1ZM100.933 55.42C101.266 55.42 101.559 55.3433 101.813 55.19C102.073 55.0367 102.276 54.8233 102.423 54.55C102.576 54.2767 102.653 53.97 102.653 53.63C102.653 53.29 102.576 52.99 102.423 52.73C102.276 52.4633 102.073 52.2533 101.813 52.1C101.559 51.9467 101.266 51.87 100.933 51.87C100.606 51.87 100.313 51.9467 100.053 52.1C99.7926 52.2533 99.5892 52.4633 99.4426 52.73C99.2959 52.99 99.2226 53.29 99.2226 53.63C99.2226 53.9767 99.2959 54.2867 99.4426 54.56C99.5892 54.8267 99.7926 55.0367 100.053 55.19C100.313 55.3433 100.606 55.42 100.933 55.42ZM107.326 56.1C106.866 56.1 106.45 55.9933 106.076 55.78C105.71 55.56 105.416 55.2633 105.196 54.89C104.983 54.5167 104.876 54.1 104.876 53.64C104.876 53.18 104.983 52.7667 105.196 52.4C105.416 52.0267 105.71 51.7333 106.076 51.52C106.45 51.3067 106.866 51.2 107.326 51.2C107.68 51.2 108.01 51.2667 108.316 51.4C108.623 51.5333 108.883 51.72 109.096 51.96L108.636 52.43C108.476 52.25 108.283 52.1133 108.056 52.02C107.83 51.92 107.586 51.87 107.326 51.87C106.993 51.87 106.696 51.9467 106.436 52.1C106.176 52.2533 105.973 52.4633 105.826 52.73C105.68 52.99 105.606 53.2933 105.606 53.64C105.606 53.98 105.68 54.2867 105.826 54.56C105.973 54.8267 106.176 55.0367 106.436 55.19C106.696 55.3433 106.993 55.42 107.326 55.42C107.593 55.42 107.84 55.3733 108.066 55.28C108.293 55.18 108.486 55.04 108.646 54.86L109.116 55.33C108.896 55.5767 108.63 55.7667 108.316 55.9C108.01 56.0333 107.68 56.1 107.326 56.1ZM112.658 56.1C112.278 56.1 111.938 56.0133 111.638 55.84C111.338 55.66 111.102 55.4167 110.928 55.11C110.762 54.8033 110.678 54.4433 110.678 54.03V51.3H111.388V54C111.388 54.2867 111.438 54.5367 111.538 54.75C111.645 54.9633 111.795 55.13 111.988 55.25C112.182 55.37 112.405 55.43 112.658 55.43C113.052 55.43 113.362 55.3 113.588 55.04C113.822 54.78 113.938 54.4333 113.938 54V51.3H114.638V54.03C114.638 54.4367 114.555 54.7967 114.388 55.11C114.222 55.4233 113.988 55.6667 113.688 55.84C113.388 56.0133 113.045 56.1 112.658 56.1ZM116.645 56V51.3H117.345V56H116.645ZM119.875 56V53.12C119.875 52.7333 119.758 52.4267 119.525 52.2C119.291 51.9667 118.998 51.85 118.645 51.85C118.405 51.85 118.185 51.9033 117.985 52.01C117.791 52.11 117.635 52.2533 117.515 52.44C117.401 52.6267 117.345 52.85 117.345 53.11L117.025 52.98C117.025 52.62 117.105 52.3067 117.265 52.04C117.425 51.7733 117.638 51.5667 117.905 51.42C118.178 51.2733 118.485 51.2 118.825 51.2C119.158 51.2 119.455 51.2733 119.715 51.42C119.981 51.5667 120.191 51.7733 120.345 52.04C120.505 52.3067 120.585 52.6233 120.585 52.99V56H119.875ZM123.115 56V53.12C123.115 52.7333 122.998 52.4267 122.765 52.2C122.531 51.9667 122.235 51.85 121.875 51.85C121.641 51.85 121.425 51.9033 121.225 52.01C121.031 52.11 120.875 52.2533 120.755 52.44C120.641 52.6267 120.585 52.85 120.585 53.11L120.165 52.98C120.185 52.62 120.278 52.3067 120.445 52.04C120.618 51.7733 120.841 51.5667 121.115 51.42C121.395 51.2733 121.701 51.2 122.035 51.2C122.368 51.2 122.668 51.2733 122.935 51.42C123.208 51.5667 123.421 51.7733 123.575 52.04C123.735 52.3067 123.815 52.6233 123.815 52.99V56H123.115ZM128.001 56.1C127.528 56.1 127.104 55.9933 126.731 55.78C126.358 55.5667 126.061 55.2733 125.841 54.9C125.628 54.5267 125.521 54.1067 125.521 53.64C125.521 53.18 125.628 52.7667 125.841 52.4C126.054 52.0267 126.344 51.7333 126.711 51.52C127.078 51.3067 127.488 51.2 127.941 51.2C128.368 51.2 128.744 51.2967 129.071 51.49C129.404 51.6833 129.664 51.9533 129.851 52.3C130.044 52.64 130.141 53.0333 130.141 53.48C130.141 53.5333 130.138 53.5967 130.131 53.67C130.124 53.7367 130.111 53.8167 130.091 53.91H126.021V53.31H129.711L129.461 53.53C129.468 53.1833 129.408 52.8867 129.281 52.64C129.161 52.3867 128.984 52.1933 128.751 52.06C128.524 51.92 128.248 51.85 127.921 51.85C127.581 51.85 127.284 51.9233 127.031 52.07C126.778 52.2167 126.578 52.4233 126.431 52.69C126.291 52.95 126.221 53.26 126.221 53.62C126.221 53.98 126.294 54.2967 126.441 54.57C126.594 54.8433 126.804 55.0567 127.071 55.21C127.344 55.3633 127.658 55.44 128.011 55.44C128.298 55.44 128.561 55.39 128.801 55.29C129.041 55.1833 129.244 55.0267 129.411 54.82L129.861 55.28C129.641 55.54 129.368 55.7433 129.041 55.89C128.721 56.03 128.374 56.1 128.001 56.1ZM135.332 56V53.24C135.332 52.8267 135.209 52.4933 134.962 52.24C134.722 51.98 134.402 51.85 134.002 51.85C133.729 51.85 133.489 51.91 133.282 52.03C133.075 52.15 132.912 52.3133 132.792 52.52C132.672 52.7267 132.612 52.9633 132.612 53.23L132.292 53.05C132.292 52.6967 132.375 52.38 132.542 52.1C132.709 51.82 132.932 51.6 133.212 51.44C133.499 51.28 133.825 51.2 134.192 51.2C134.552 51.2 134.872 51.2867 135.152 51.46C135.432 51.6333 135.649 51.8667 135.802 52.16C135.962 52.4533 136.042 52.7733 136.042 53.12V56H135.332ZM131.912 56V51.3H132.612V56H131.912ZM138.723 56V49.32H139.423V56H138.723ZM137.533 51.93V51.3H140.603V51.93H137.533ZM148.395 56.09C147.909 56.09 147.455 56 147.035 55.82C146.615 55.64 146.249 55.39 145.935 55.07C145.622 54.75 145.379 54.3767 145.205 53.95C145.032 53.5167 144.945 53.05 144.945 52.55C144.945 52.05 145.032 51.5867 145.205 51.16C145.385 50.7333 145.632 50.36 145.945 50.04C146.259 49.7133 146.629 49.46 147.055 49.28C147.482 49.1 147.945 49.01 148.445 49.01C148.999 49.01 149.505 49.12 149.965 49.34C150.432 49.56 150.815 49.87 151.115 50.27L150.605 50.78C150.365 50.44 150.059 50.18 149.685 50C149.312 49.8133 148.899 49.72 148.445 49.72C147.905 49.72 147.429 49.8433 147.015 50.09C146.602 50.33 146.279 50.6633 146.045 51.09C145.819 51.5167 145.705 52.0067 145.705 52.56C145.705 53.1067 145.819 53.5933 146.045 54.02C146.279 54.4467 146.595 54.7833 146.995 55.03C147.402 55.27 147.862 55.39 148.375 55.39C148.889 55.39 149.332 55.2867 149.705 55.08C150.085 54.8733 150.375 54.5733 150.575 54.18C150.782 53.7867 150.889 53.3133 150.895 52.76L151.315 53.07H148.305V52.4H151.655V52.51C151.655 53.2833 151.515 53.9367 151.235 54.47C150.962 55.0033 150.582 55.4067 150.095 55.68C149.609 55.9533 149.042 56.09 148.395 56.09ZM155.72 56.1C155.247 56.1 154.823 55.9933 154.45 55.78C154.077 55.5667 153.78 55.2733 153.56 54.9C153.347 54.5267 153.24 54.1067 153.24 53.64C153.24 53.18 153.347 52.7667 153.56 52.4C153.773 52.0267 154.063 51.7333 154.43 51.52C154.797 51.3067 155.207 51.2 155.66 51.2C156.087 51.2 156.463 51.2967 156.79 51.49C157.123 51.6833 157.383 51.9533 157.57 52.3C157.763 52.64 157.86 53.0333 157.86 53.48C157.86 53.5333 157.857 53.5967 157.85 53.67C157.843 53.7367 157.83 53.8167 157.81 53.91H153.74V53.31H157.43L157.18 53.53C157.187 53.1833 157.127 52.8867 157 52.64C156.88 52.3867 156.703 52.1933 156.47 52.06C156.243 51.92 155.967 51.85 155.64 51.85C155.3 51.85 155.003 51.9233 154.75 52.07C154.497 52.2167 154.297 52.4233 154.15 52.69C154.01 52.95 153.94 53.26 153.94 53.62C153.94 53.98 154.013 54.2967 154.16 54.57C154.313 54.8433 154.523 55.0567 154.79 55.21C155.063 55.3633 155.377 55.44 155.73 55.44C156.017 55.44 156.28 55.39 156.52 55.29C156.76 55.1833 156.963 55.0267 157.13 54.82L157.58 55.28C157.36 55.54 157.087 55.7433 156.76 55.89C156.44 56.03 156.093 56.1 155.72 56.1ZM163.051 56V53.24C163.051 52.8267 162.927 52.4933 162.681 52.24C162.441 51.98 162.121 51.85 161.721 51.85C161.447 51.85 161.207 51.91 161.001 52.03C160.794 52.15 160.631 52.3133 160.511 52.52C160.391 52.7267 160.331 52.9633 160.331 53.23L160.011 53.05C160.011 52.6967 160.094 52.38 160.261 52.1C160.427 51.82 160.651 51.6 160.931 51.44C161.217 51.28 161.544 51.2 161.911 51.2C162.271 51.2 162.591 51.2867 162.871 51.46C163.151 51.6333 163.367 51.8667 163.521 52.16C163.681 52.4533 163.761 52.7733 163.761 53.12V56H163.051ZM159.631 56V51.3H160.331V56H159.631ZM167.995 56L170.815 49.12H171.365L174.155 56H173.365L170.935 49.92H171.225L168.775 56H167.995ZM169.285 54.21V53.56H172.885V54.21H169.285ZM176.032 56V49.12H176.762V56H176.032Z" fill="#7A8398"/>
</g>
<defs>
<clipPath id="clip0_7874_27">
<rect width="189" height="84" fill="white"/>
</clipPath>
</defs>
</svg>
