<svg width="64" height="64" viewBox="0 0 64 64" fill="none" xmlns="http://www.w3.org/2000/svg">
<path d="M32.4539 38.336C31.2244 37.7727 30.0895 37.0216 28.9545 36.3644C27.8196 35.6134 26.7793 34.7684 25.7389 33.9234C24.6986 33.0785 23.7528 32.1396 22.807 31.1069C22.3341 30.6374 21.9558 30.0741 21.4829 29.6047C21.3884 29.5108 21.2938 29.323 21.1992 29.2292C21.1046 29.1353 21.01 28.9475 20.9155 28.8536C20.7263 28.6659 20.5372 28.4781 20.4426 28.2903C19.7805 27.5392 19.1185 26.7881 18.551 25.9432C17.889 25.0043 17.4161 24.1594 16.9432 23.2205C16.7541 22.845 16.5649 22.3755 16.3758 22H2C2.18915 22.4694 2.37831 22.845 2.56746 23.3144C3.13493 24.5349 3.79697 25.6615 4.55359 26.882C5.31021 28.0087 6.06683 29.1353 7.0126 30.0741C7.8638 31.1069 8.80957 32.0457 9.84992 32.9846C10.7957 33.9234 11.836 34.7684 12.971 35.5195C14.0113 36.2706 15.1463 37.0216 16.3758 37.6788C17.5107 38.336 18.7402 38.8993 19.9697 39.4627C21.1992 39.9321 22.5233 40.4015 23.7528 40.777C25.0769 41.1526 26.401 41.4342 27.725 41.622C28.2925 41.7159 28.86 41.8098 29.4274 41.8098C29.8057 41.8098 30.2786 41.9037 30.6569 41.9037C31.0352 41.9037 31.5081 41.9037 31.8864 41.9976C32.0756 41.9976 32.3593 41.9976 32.5485 41.9976C32.7376 41.9976 32.9268 41.9976 33.0214 41.9976C33.3997 41.9976 33.778 41.9976 34.1563 41.9976C34.6292 41.9976 35.0075 41.9976 35.4804 41.9037C36.0478 41.9037 36.5207 41.8098 37.0882 41.7159C38.034 41.622 38.9797 41.4342 39.9255 41.1526C38.6014 40.8709 37.2774 40.4954 36.0478 40.026C34.9129 39.4627 33.6834 38.8993 32.4539 38.336Z" fill="#47B65C"/>
<path opacity="0.12" d="M9.8499 32.987C10.7957 33.9259 11.836 34.7708 12.971 35.5219C14.0113 36.273 15.1462 37.0241 16.3757 37.6813C17.5107 38.3385 18.7402 38.9018 19.9697 39.4651C21.1992 39.9345 22.5233 40.404 23.7528 40.7795C25.0769 41.155 26.4009 41.4367 27.725 41.6245C28.2925 41.7183 28.8599 41.8122 29.4274 41.8122C29.8057 41.8122 30.2786 41.9061 30.6569 41.9061C31.0352 41.9061 31.5081 41.9061 31.8864 42C32.0756 42 32.3593 42 32.5485 42C32.7376 42 32.9268 42 33.0213 42C33.3997 42 33.778 42 34.1563 42C34.6292 42 35.0075 42 35.4804 41.9061C36.0478 41.9061 36.5207 41.8122 37.0882 41.7183C38.0339 41.6245 38.9797 41.4367 39.9255 41.155C38.6014 40.8734 37.2773 40.4978 36.0478 40.0284C34.8183 39.559 33.5888 39.0896 32.3593 38.4324C31.1298 37.8691 29.9949 37.118 28.8599 36.4608C27.725 35.7097 26.6847 34.8647 25.6443 34.0198C24.604 33.1748 23.6582 32.2359 22.7124 31.2032C22.2395 30.7338 21.8612 30.1705 21.3883 29.701C21.2938 29.6072 21.1992 29.4194 21.1046 29.3255C21.01 29.2316 20.9154 29.0438 20.8209 28.95C20.6317 28.7622 20.5371 28.6683 20.348 28.4805C15.9974 29.1377 11.9306 30.1705 8.14751 31.4849C8.71497 31.8604 9.28243 32.4237 9.8499 32.987Z" fill="white"/>
<path d="M49.3809 22C49.0026 22.845 48.6242 23.596 48.1514 24.3471C47.6785 25.1921 47.111 26.0371 46.449 26.7881C45.8815 27.5392 45.2195 28.1964 44.5574 28.8536C43.8008 29.5108 43.0442 30.168 42.193 30.7313C41.1526 31.4824 40.0177 32.0457 38.7882 32.5151C37.5587 32.9846 36.3292 33.2662 35.0997 33.3601C33.7756 33.454 32.5461 33.454 31.222 33.2662C29.9925 33.0785 28.763 32.7029 27.6281 32.1396C26.4931 31.6702 25.4528 31.013 24.507 30.3558C23.7504 29.7925 22.9938 29.1353 22.3317 28.4781C23.0884 29.5108 24.0341 30.5436 24.8853 31.3885C25.8311 32.3274 26.7769 33.1723 27.8172 34.0173C28.8576 34.8623 29.8979 35.6134 31.0329 36.2706C32.1678 36.9278 33.3027 37.585 34.4376 38.1483C35.6671 38.7116 36.8021 39.181 38.1262 39.5565C38.7882 39.7443 39.3557 39.9321 40.0177 40.1199C40.2069 40.1199 40.3014 40.2137 40.4906 40.2137C40.5852 40.2137 40.6797 40.2137 40.6797 40.3076H40.7743H40.8689C41.1526 40.2137 41.5309 40.1199 41.8147 40.026C43.0442 39.6504 44.2737 39.2749 45.5032 38.8055C46.6381 38.336 47.773 37.7727 48.908 37.2094C49.9483 36.6461 51.0833 35.9889 52.029 35.2378C53.0694 34.4867 54.0152 33.7357 54.9609 32.9846C55.8121 32.2335 56.6633 31.3885 57.4199 30.5436C58.1766 29.7925 58.8386 28.9475 59.4061 28.1025C60.0681 27.2576 60.6356 26.3187 61.203 25.4738C61.7705 24.5349 62.2434 23.596 62.7163 22.6572C62.8108 22.4694 62.9054 22.2817 63 22.0939H49.3809V22Z" fill="#227CBF"/>
<path opacity="0.12" d="M24.9799 31.3891C25.9257 32.328 26.8715 33.173 27.9118 34.0179C28.9522 34.8629 29.9925 35.614 31.1274 36.2712C32.2624 36.9284 33.3973 37.5856 34.5322 38.1489C35.7617 38.7122 36.8967 39.1816 38.2207 39.5572C38.8828 39.7449 39.4502 39.9327 40.1123 40.1205C40.3014 40.1205 40.396 40.2143 40.5852 40.2143C40.6797 40.2143 40.7743 40.2143 40.7743 40.3082H40.8689H40.9635C41.2472 40.2143 41.6255 40.1205 41.9093 40.0266C43.1388 39.651 44.3683 39.2755 45.5978 38.8061C46.7327 38.3366 47.8676 37.7733 49.0026 37.21C50.0429 36.6467 51.1778 35.9895 52.1236 35.2384C53.164 34.4873 54.1097 33.7363 55.0555 32.9852C55.623 32.4219 56.285 31.8586 56.8525 31.2953C53.164 30.0747 49.1917 29.042 45.0303 28.3848C44.8411 28.5726 44.7466 28.6665 44.5574 28.8542C43.8008 29.5114 43.0442 30.1686 42.193 30.7319C41.1526 31.483 40.0177 32.0463 38.7882 32.5158C37.5587 32.9852 36.3292 33.2668 35.0997 33.3607C33.7756 33.4546 32.5461 33.4546 31.222 33.2668C29.9925 33.0791 28.763 32.7035 27.6281 32.1402C26.4931 31.6708 25.4528 31.0136 24.507 30.3564C23.7504 29.7931 22.9938 29.1359 22.3317 28.4787C23.2775 29.4175 24.1287 30.4503 24.9799 31.3891Z" fill="white"/>
</svg>
